<svg id="Layer_1" data-name="Layer 1" xmlns="http://www.w3.org/2000/svg" viewBox="0 0 382 382">
  <defs>
    <style>
      .cls-1 {
        fill: #1d1d1b;
      }
    </style>
  </defs>
  <path class="cls-1" d="M347.4,0H34.6A34.6,34.6,0,0,0,0,34.6V347.4A34.6,34.6,0,0,0,34.6,382H347.4A34.6,34.6,0,0,0,382,347.4V34.6A34.6,34.6,0,0,0,347.4,0ZM118.2,329.8a10.1,10.1,0,0,1-10,10.1H65.3a10.1,10.1,0,0,1-10-10.1V150.4a10.1,10.1,0,0,1,10-10.1h42.9a10.1,10.1,0,0,1,10,10.1ZM86.7,123.4a40.7,40.7,0,1,1,40.7-40.6A40.6,40.6,0,0,1,86.7,123.4ZM341.9,330.7a9.2,9.2,0,0,1-9.2,9.2h-46a9.2,9.2,0,0,1-9.2-9.2V246.5c0-12.6,3.7-55-32.8-55-28.3,0-34.1,29-35.2,42.1v97.1a9.3,9.3,0,0,1-9.3,9.2H155.8a9.3,9.3,0,0,1-9.3-9.2V149.6a9.3,9.3,0,0,1,9.3-9.3h44.4a9.3,9.3,0,0,1,9.3,9.3v15.6c10.5-15.7,26.1-27.9,59.3-27.9,73.5,0,73.1,68.8,73.1,106.5v86.9Z" transform="translate(0 0)"/>
</svg>
