<svg xmlns="http://www.w3.org/2000/svg" xmlns:xlink="http://www.w3.org/1999/xlink" version="1.1" x="0px" y="0px" viewBox="0 0 100 125" enable-background="new 0 0 100 100" xml:space="preserve"><circle cx="40.734" cy="40.536" r="6.426"/><circle cx="58.63" cy="40.536" r="6.426"/><path d="M50.136,64.857c-8.885,0-16.088-4.065-16.088-0.592c0,3.473,7.203,13.169,16.088,13.169s16.088-9.696,16.088-13.169  C66.224,60.792,59.021,64.857,50.136,64.857z"/><path d="M83.664,38.44c-1.986,0-3.849,0.624-5.462,1.713c0.003-0.164,0.012-0.325,0.012-0.49c0-15.575-12.571-28.201-28.078-28.201  c-15.507,0-28.078,12.626-28.078,28.201c0,0.228,0.012,0.452,0.017,0.679c-1.674-1.207-3.638-1.902-5.738-1.902  c-6.128,0-11.095,5.914-11.095,13.209c0,7.295,4.968,13.209,11.095,13.209c1.849,0,3.59-0.541,5.123-1.493  c-0.347,1.303-0.534,2.647-0.534,4.023c0,11.682,13.078,21.152,29.21,21.152s29.21-9.47,29.21-21.152  c0-1.308-0.172-2.586-0.486-3.828c1.454,0.832,3.083,1.299,4.804,1.299c6.128,0,11.095-5.914,11.095-13.209  C94.759,44.353,89.792,38.44,83.664,38.44z M16.336,58.788c-3.16,0-5.721-3.196-5.721-7.139c0-3.943,2.562-7.14,5.721-7.14  c3.159,0,5.721,3.197,5.721,7.14C22.058,55.592,19.496,58.788,16.336,58.788z M50.136,84.402c-13.756,0-24.908-8.263-24.908-18.457  c0-5.061,2.751-9.645,7.203-12.979c-2.575-3.122-4.184-7.535-4.184-12.431c0-9.461,5.997-17.13,13.395-17.13  c3.225,0,6.183,1.458,8.494,3.885c2.312-2.427,5.27-3.885,8.494-3.885c7.398,0,13.395,7.669,13.395,17.13  c0,4.896-1.609,9.309-4.184,12.431c4.452,3.334,7.203,7.918,7.203,12.979C75.044,76.139,63.892,84.402,50.136,84.402z   M83.664,58.788c-3.16,0-5.721-3.196-5.721-7.139c0-3.943,2.562-7.14,5.721-7.14c3.159,0,5.721,3.197,5.721,7.14  C89.385,55.592,86.823,58.788,83.664,58.788z"/><text x="0" y="115" fill="#000000" font-size="5px" font-weight="bold" font-family="'Helvetica Neue', Helvetica, Arial-Unicode, Arial, Sans-serif">Created by Pieter J. Smits</text><text x="0" y="120" fill="#000000" font-size="5px" font-weight="bold" font-family="'Helvetica Neue', Helvetica, Arial-Unicode, Arial, Sans-serif">from the Noun Project</text></svg>