<?xml version="1.0" standalone="no"?>
<!DOCTYPE svg PUBLIC "-//W3C//DTD SVG 20010904//EN"
 "http://www.w3.org/TR/2001/REC-SVG-20010904/DTD/svg10.dtd">
<svg version="1.0" xmlns="http://www.w3.org/2000/svg"
 width="993.000000pt" height="993.000000pt" viewBox="0 0 993.000000 993.000000"
 preserveAspectRatio="xMidYMid meet">
<metadata>
Created by potrace 1.11, written by Peter Selinger 2001-2013
</metadata>
<g transform="translate(0.000000,993.000000) scale(0.100000,-0.100000)"
fill="#000000" stroke="none">
<path d="M5317 9924 c-1 -1 -33 -4 -72 -8 -98 -8 -200 -22 -200 -26 0 -1 -13
-4 -30 -6 -16 -3 -37 -7 -45 -11 -8 -3 -24 -7 -35 -8 -11 -2 -29 -5 -40 -8
-11 -3 -42 -10 -69 -17 -27 -6 -54 -14 -60 -18 -6 -3 -17 -8 -23 -9 -30 -7
-48 -12 -50 -13 -2 -2 -6 -3 -10 -5 -5 -1 -21 -7 -38 -14 -16 -7 -34 -14 -40
-15 -14 -4 -44 -15 -87 -33 -22 -9 -44 -12 -55 -8 -10 5 -22 9 -28 11 -5 1
-30 9 -54 18 -24 9 -46 14 -49 11 -3 -3 -10 -1 -16 4 -12 9 -113 33 -156 36
-14 2 -25 3 -25 5 0 4 -113 9 -210 9 -154 0 -195 -2 -195 -12 0 -5 -6 -7 -14
-4 -10 4 -154 -20 -221 -37 -103 -26 -297 -96 -307 -111 -4 -5 -8 -7 -8 -3 0
4 -43 -15 -95 -41 -52 -27 -95 -46 -95 -43 0 4 -5 -1 -11 -10 -5 -10 -14 -18
-20 -18 -9 0 -208 -127 -219 -139 -3 -4 -23 -19 -45 -36 -22 -16 -45 -34 -51
-40 -6 -5 -36 -30 -65 -55 -73 -61 -242 -230 -309 -310 -30 -36 -58 -66 -62
-68 -5 -2 -8 -10 -8 -17 0 -7 -3 -15 -7 -17 -29 -13 -209 -282 -284 -426 -22
-42 -43 -80 -47 -86 -14 -18 -91 -192 -134 -299 -59 -150 -150 -435 -164 -514
-3 -15 -9 -41 -14 -58 -21 -70 -77 -377 -95 -520 -4 -27 -8 -61 -11 -75 -4
-25 -17 -173 -17 -199 0 -7 -12 2 -26 20 -34 43 -170 179 -180 179 -7 0 -21
10 -67 49 -7 5 -15 7 -18 4 -3 -4 -6 -2 -6 3 0 6 -24 18 -52 29 -29 10 -58 22
-65 27 -6 5 -20 8 -30 6 -10 -1 -24 1 -32 6 -18 12 -194 11 -212 0 -8 -5 -21
-9 -29 -9 -25 -1 -62 -15 -134 -52 -111 -56 -202 -129 -281 -228 -22 -28 -42
-52 -45 -55 -44 -44 -155 -299 -189 -435 -11 -44 -14 -61 -36 -190 -20 -120
-26 -452 -11 -605 30 -291 101 -561 203 -765 55 -111 178 -305 193 -305 5 0
11 -8 14 -18 11 -33 150 -168 236 -228 70 -50 207 -105 242 -98 10 1 18 -1 18
-5 0 -10 72 -7 89 4 10 6 12 4 6 -5 -5 -8 -4 -11 2 -7 5 3 25 9 44 12 49 9
149 46 149 56 0 5 5 9 11 9 16 0 91 54 139 100 l43 41 -7 -58 c-8 -74 -13 -99
-37 -203 -11 -47 -22 -92 -24 -100 -7 -28 -43 -135 -65 -190 -23 -60 -109
-232 -119 -240 -3 -3 -21 -27 -40 -55 -19 -27 -45 -62 -58 -76 l-24 -26 25 -5
c14 -3 28 -3 31 0 3 3 11 7 18 8 7 1 26 8 42 15 17 7 32 13 35 14 9 2 71 39
132 78 33 21 62 36 64 34 2 -2 -8 -37 -22 -78 -15 -41 -30 -87 -34 -104 -5
-16 -15 -55 -23 -85 -9 -30 -20 -82 -26 -115 -6 -33 -13 -69 -15 -81 -25 -127
-25 -407 -1 -554 15 -91 81 -309 90 -298 1 2 5 33 8 70 3 38 17 110 31 160 32
115 91 274 98 262 3 -5 9 -29 13 -54 11 -68 70 -267 111 -377 72 -194 174
-383 287 -531 61 -81 253 -272 273 -272 4 0 14 -8 23 -18 9 -9 27 -23 41 -30
14 -7 57 -30 95 -52 l70 -39 36 -94 c86 -229 224 -449 382 -611 116 -119 175
-169 190 -159 5 3 7 2 4 -4 -4 -5 5 -16 18 -23 14 -7 25 -17 25 -22 0 -4 9 -8
20 -8 11 0 20 -7 20 -16 0 -8 4 -13 9 -10 5 4 11 2 13 -3 1 -5 10 -11 18 -13
8 -2 23 -11 32 -21 9 -10 18 -17 20 -15 5 5 122 -54 130 -66 4 -6 8 -7 8 -2 0
5 10 1 22 -10 12 -10 18 -13 14 -6 -4 6 -2 12 3 12 6 0 11 -7 11 -15 0 -8 5
-15 11 -15 5 0 7 5 4 11 -6 9 32 -8 45 -21 7 -7 32 -13 53 -12 9 0 15 -3 13
-7 -5 -8 11 -11 52 -11 12 0 22 -4 22 -9 0 -5 11 -8 25 -6 14 1 28 -1 30 -5 3
-5 15 -6 27 -2 13 3 19 1 15 -6 -8 -11 11 -11 31 1 7 5 12 3 12 -5 0 -9 3 -9
10 2 8 12 10 12 10 1 0 -11 3 -11 15 -1 12 10 15 10 15 0 0 -9 4 -9 17 1 9 8
14 9 10 3 -9 -15 62 -17 80 -2 7 6 16 8 20 4 3 -3 1 -6 -5 -6 -7 0 -12 -4 -12
-10 0 -11 32 -1 42 14 5 7 8 3 8 -8 0 -20 0 -20 16 0 8 10 13 14 10 8 -3 -7
10 -11 35 -12 24 -1 38 2 34 8 -3 6 -1 10 4 10 6 0 11 -4 11 -8 0 -5 14 -9 30
-9 17 0 30 5 30 11 0 6 5 5 12 -2 9 -9 16 -8 32 6 11 10 16 11 11 3 -6 -11 -2
-13 21 -7 16 4 40 7 53 7 13 -1 31 5 39 11 13 11 14 10 7 -2 -8 -13 -6 -13 8
-1 9 7 24 11 32 7 10 -3 15 1 15 12 0 14 2 15 10 2 8 -13 11 -12 25 5 9 11 14
14 10 8 -3 -7 -1 -13 4 -13 6 0 11 3 11 8 0 4 20 7 44 7 31 0 42 4 39 13 -3 7
-2 12 3 11 23 -4 35 2 28 14 -6 9 -4 9 8 -1 11 -9 18 -10 23 -2 3 5 1 10 -6
10 -7 0 -9 3 -6 6 4 4 14 1 24 -7 14 -12 16 -12 8 0 -6 11 -3 13 13 9 15 -4
19 -2 15 8 -3 8 -1 14 5 14 6 0 13 -6 15 -12 4 -10 6 -10 6 0 1 6 10 12 21 12
14 0 18 5 13 17 -5 15 -3 16 8 6 16 -16 29 -17 29 -2 0 5 -4 7 -10 4 -5 -3
-10 -1 -10 4 0 15 13 14 29 -2 12 -10 13 -9 7 7 -6 17 -5 17 11 5 15 -12 16
-12 10 4 -5 15 -3 16 12 7 14 -7 22 -6 31 5 7 8 17 12 23 8 7 -4 8 0 4 11 -6
14 -3 17 9 12 16 -6 58 16 49 26 -3 3 1 8 9 11 11 4 13 1 9 -11 -6 -14 -5 -15
9 -2 9 8 13 19 10 24 -3 5 5 7 16 4 12 -4 20 -2 17 2 -3 5 3 11 14 15 10 3 21
15 24 26 4 15 11 19 34 15 24 -4 26 -3 12 7 -15 11 -15 14 -1 27 14 13 15 12
9 -3 -3 -9 -2 -17 3 -17 6 0 10 5 10 11 0 5 4 8 9 5 11 -7 23 22 14 36 -3 6
-1 8 5 4 5 -3 13 0 16 6 3 7 3 2 0 -12 l-5 -25 14 23 c7 12 17 19 22 15 4 -4
5 0 2 10 -4 10 -3 16 2 12 12 -7 43 24 36 35 -3 4 4 6 15 3 12 -3 20 0 20 6 0
7 -5 9 -12 5 -7 -4 -8 -3 -4 4 4 6 13 9 21 6 9 -4 18 1 21 11 4 9 13 14 20 11
8 -3 13 -2 13 2 -2 17 14 51 22 46 5 -3 9 0 9 6 0 18 91 100 103 93 5 -3 7 -1
4 4 -6 10 27 27 46 24 5 -1 5 8 2 20 -5 14 -3 19 3 15 6 -3 13 0 16 6 3 7 3 1
1 -13 -3 -25 -1 -26 32 -22 21 3 33 1 30 -4 -4 -5 0 -10 8 -10 8 0 12 4 9 9
-3 4 1 8 8 8 7 0 24 3 38 6 18 4 21 3 11 -4 -11 -8 -8 -10 11 -9 16 1 24 7 21
15 -4 8 0 10 11 6 9 -3 13 -10 10 -15 -3 -5 2 -6 10 -3 9 3 16 13 16 21 0 12
2 12 16 -1 19 -20 25 -20 18 -2 -3 8 0 17 7 22 8 4 10 3 5 -4 -5 -8 1 -12 14
-12 13 0 19 4 14 11 -4 7 -1 10 7 7 8 -3 13 -12 11 -19 -1 -8 4 -5 13 5 11 15
18 17 26 9 8 -8 21 -5 48 10 34 20 35 20 21 2 -14 -19 -14 -19 3 -6 10 8 16
20 13 28 -3 8 -1 11 4 8 6 -3 10 -14 10 -23 0 -15 2 -15 10 -2 5 8 10 10 10 4
0 -7 9 -14 21 -17 18 -5 18 -3 7 11 -12 15 -11 16 5 3 9 -7 17 -21 18 -30 0
-11 3 -8 9 7 15 37 56 45 125 26 l20 -6 -20 16 c-20 16 -20 17 5 14 20 -2 24
1 22 16 -4 19 -3 19 25 1 15 -10 22 -12 16 -4 -18 18 -16 32 3 25 15 -6 15 -4
3 11 -8 9 -9 14 -2 10 6 -4 14 -1 16 5 3 8 6 6 6 -4 1 -11 6 -15 16 -12 8 4
12 11 9 16 -4 6 3 5 15 -1 17 -9 21 -9 19 1 -2 8 5 12 16 10 11 -2 15 1 11 7
-3 6 -1 11 4 11 6 0 11 -6 11 -12 0 -7 5 -5 11 6 9 15 13 16 20 5 7 -11 9 -11
9 -1 0 8 5 10 13 6 8 -5 7 -2 -2 9 -13 16 -12 17 13 7 20 -7 25 -7 20 2 -5 8
-2 9 9 5 10 -3 17 -2 17 3 0 5 9 7 21 5 16 -3 18 -1 10 9 -9 11 -6 12 14 8 14
-2 32 1 40 8 12 10 15 10 15 -1 0 -12 2 -12 9 0 7 11 9 11 14 0 4 -10 6 -10 6
-1 1 6 6 12 12 12 5 0 7 -6 3 -12 -5 -9 -2 -9 9 1 13 10 17 10 17 1 0 -9 4 -9
17 1 15 12 16 12 8 -1 -6 -12 -5 -13 6 -3 17 16 40 17 37 1 -2 -7 10 -12 29
-13 18 0 36 -5 40 -9 5 -5 2 -6 -6 -1 -10 6 -12 4 -7 -4 5 -7 13 -8 19 -3 7 4
26 8 44 7 18 -1 30 2 27 6 -2 4 -13 6 -23 4 -11 -2 -27 3 -38 10 -10 8 -30 15
-45 15 -16 0 -28 4 -28 9 0 5 -8 7 -19 4 -10 -3 -22 1 -26 9 -5 7 -5 10 -1 6
15 -13 290 145 381 219 17 13 48 38 70 56 140 113 274 277 359 439 25 48 47
84 49 80 6 -11 -8 -268 -17 -317 -2 -11 -7 -47 -11 -80 -4 -32 -9 -68 -11 -80
-2 -11 -7 -36 -10 -55 -3 -19 -9 -53 -14 -75 -5 -22 -8 -41 -6 -42 2 -3 51 46
107 107 48 52 202 273 243 350 105 196 178 382 211 540 25 119 34 175 35 224
0 16 3 27 6 24 8 -8 32 -115 39 -174 4 -27 8 -56 10 -64 2 -8 7 -51 11 -95 4
-44 8 -93 10 -110 2 -16 4 -92 4 -168 1 -82 5 -135 11 -132 5 4 9 13 9 21 0 8
9 41 20 74 16 49 60 210 75 280 23 100 65 317 70 360 4 30 8 57 10 60 2 3 6
43 10 90 4 47 9 88 10 91 6 9 18 240 18 344 0 176 -26 439 -49 500 -24 62 72
-89 152 -240 55 -105 52 -100 61 -92 23 24 36 252 19 357 -15 100 -33 172 -70
282 -24 71 -40 128 -35 128 4 0 10 -4 13 -9 3 -5 23 -12 43 -17 46 -9 43 -8
68 -16 52 -17 111 -22 238 -21 163 1 187 3 187 15 0 5 5 6 11 3 10 -7 158 41
169 54 3 3 28 17 55 31 28 13 52 27 55 31 3 3 15 11 26 17 12 7 41 29 65 49
179 157 301 336 432 633 57 128 153 492 172 649 4 30 8 62 10 72 17 89 25 460
12 615 -35 445 -188 839 -416 1072 -37 38 -88 83 -114 100 -50 35 -177 103
-177 96 0 -3 -8 0 -18 5 -59 31 -217 43 -322 24 -93 -17 -92 -17 -107 -26 -7
-5 -13 -6 -13 -3 0 8 -176 -83 -196 -103 -11 -9 -33 -27 -51 -39 l-31 -22 -17
52 c-66 202 -287 691 -379 837 -14 22 -26 43 -26 46 0 8 -131 219 -149 239 -9
10 -15 20 -13 22 2 4 -88 142 -110 169 -5 6 -51 69 -104 140 -53 72 -101 135
-107 140 -7 6 -46 50 -87 99 -65 78 -334 356 -345 356 -2 0 -27 22 -57 50 -29
27 -56 50 -60 50 -4 0 -15 8 -25 18 -24 24 -99 82 -107 82 -3 0 -14 8 -24 18
-10 9 -27 23 -38 30 -102 68 -189 122 -234 146 -30 16 -58 33 -61 38 -3 5 -12
10 -20 12 -8 1 -48 18 -89 38 -74 36 -125 59 -145 64 -5 1 -28 10 -50 20 -22
10 -47 18 -55 18 -8 0 -17 3 -20 6 -11 13 -241 73 -330 87 -19 2 -47 5 -62 6
-16 1 -28 4 -28 7 0 3 -30 7 -68 8 -37 2 -87 5 -112 6 -25 1 -51 -3 -59 -8
-11 -8 -13 -8 -8 0 4 7 -21 10 -79 10 -47 -1 -86 -2 -87 -2z m183 -9149 c0 -2
-10 -9 -22 -15 -22 -11 -22 -10 -4 4 21 17 26 19 26 11z m-50 -21 c0 -8 -5
-12 -10 -9 -6 4 -8 11 -5 16 9 14 15 11 15 -7z m-707 -515 c-8 -8 -13 -7 -18
2 -5 8 -4 10 3 5 7 -4 12 -2 12 5 0 7 3 9 7 6 4 -4 2 -12 -4 -18z"/>
<path d="M6930 849 c0 -5 5 -7 10 -4 6 3 10 8 10 11 0 2 -4 4 -10 4 -5 0 -10
-5 -10 -11z"/>
<path d="M5976 728 c3 -5 10 -6 15 -3 13 9 11 12 -6 12 -8 0 -12 -4 -9 -9z"/>
<path d="M7115 680 c10 -11 20 -20 23 -20 3 0 -3 9 -13 20 -10 11 -20 20 -23
20 -3 0 3 -9 13 -20z"/>
<path d="M5815 550 c3 -5 8 -10 11 -10 2 0 4 5 4 10 0 6 -5 10 -11 10 -5 0 -7
-4 -4 -10z"/>
<path d="M7306 457 c3 -10 9 -15 12 -12 3 3 0 11 -7 18 -10 9 -11 8 -5 -6z"/>
<path d="M5646 408 c3 -5 10 -6 15 -3 13 9 11 12 -6 12 -8 0 -12 -4 -9 -9z"/>
<path d="M7590 300 c0 -5 5 -10 11 -10 5 0 7 5 4 10 -3 6 -8 10 -11 10 -2 0
-4 -4 -4 -10z"/>
<path d="M5386 212 c-3 -5 1 -9 9 -9 8 0 12 4 9 9 -3 4 -7 8 -9 8 -2 0 -6 -4
-9 -8z"/>
<path d="M5287 149 c7 -7 15 -10 18 -7 3 3 -2 9 -12 12 -14 6 -15 5 -6 -5z"/>
<path d="M5255 110 c-3 -5 -1 -10 4 -10 6 0 11 5 11 10 0 6 -2 10 -4 10 -3 0
-8 -4 -11 -10z"/>
<path d="M5170 69 c0 -5 5 -7 10 -4 6 3 10 8 10 11 0 2 -4 4 -10 4 -5 0 -10
-5 -10 -11z"/>
<path d="M3225 49 c-3 -4 2 -6 10 -5 21 3 28 13 10 13 -9 0 -18 -4 -20 -8z"/>
<path d="M5104 52 c4 -3 14 -7 22 -8 9 -1 13 0 10 4 -4 3 -14 7 -22 8 -9 1
-13 0 -10 -4z"/>
<path d="M5036 8 c3 -5 10 -6 15 -3 13 9 11 12 -6 12 -8 0 -12 -4 -9 -9z"/>
</g>
</svg>
